<svg id="Layer_1" data-name="Layer 1" xmlns="http://www.w3.org/2000/svg" viewBox="0 0 127.8 23.5"><defs><style>.cls-1{fill:#111;}</style></defs><title>footer-logo</title><path class="cls-1" d="M1.6,21.5A9.1,9.1,0,0,1,0,15.9V7.6A9.22,9.22,0,0,1,1.5,1.9C2.6.6,4.3,0,6.8,0s4.1.6,5.1,1.7a7.18,7.18,0,0,1,1.5,4.9v2H8.5V6.3a4.92,4.92,0,0,0-.3-2,1.44,1.44,0,0,0-1.4-.8c-.7,0-1.2.2-1.4.7a6.46,6.46,0,0,0-.3,2.2V17.1a4.14,4.14,0,0,0,.4,2.1c.2.5.7.7,1.4.7s1.1-.2,1.3-.7a5.84,5.84,0,0,0,.3-2.1V14.7h4.9v2a7.65,7.65,0,0,1-1.5,5q-1.5,1.8-5.1,1.8C4.4,23.4,2.6,22.8,1.6,21.5Z"/><path class="cls-1" d="M19.3.3H25l4.2,22.8H24.6l-.8-4.8H20.5l-.8,4.8H15Zm4.1,15L22.2,6.4,21,15.3Z"/><path class="cls-1" d="M32.7,4.1H29.3V.3H41.2V4H37.8V23.1H32.7Z"/><path class="cls-1" d="M50.3.3h8.8V2.7H53.4v7.5H58v2.3H53.4v8.4h5.7v2.3H50.2V.3Z"/><path class="cls-1" d="M61.7.3h2.2l6.5,15.1V.3H73V23.1H71L64.4,7.5V23.1H61.7Z"/><path class="cls-1" d="M76,.3h8.8V2.7H79.1v7.5h4.6v2.3H79.1v8.4h5.7v2.3H76Z"/><path class="cls-1" d="M87.4.3H92a8,8,0,0,1,5.1,1.4c1.1.9,1.6,2.5,1.6,4.6,0,2.9-.9,4.7-2.8,5.3L99.1,23H96L93,12.3H90.5V23H87.3V.3Zm4.4,9.8a4.37,4.37,0,0,0,2.9-.8q.9-.75.9-3a6.46,6.46,0,0,0-.3-2.2,2.54,2.54,0,0,0-1.1-1.2A4.56,4.56,0,0,0,92,2.5H90.6V10h1.2Z"/><path class="cls-1" d="M102.7,21.4a10.11,10.11,0,0,1-1.4-5.8V8a16.35,16.35,0,0,1,.5-4.3,5.08,5.08,0,0,1,1.9-2.6,6.53,6.53,0,0,1,3.7-.9c2.1,0,3.6.5,4.5,1.6a7.65,7.65,0,0,1,1.4,5v.8h-3V6.9a14.73,14.73,0,0,0-.2-2.5,2,2,0,0,0-.8-1.3,3.09,3.09,0,0,0-1.9-.5,3,3,0,0,0-2,.6,2.26,2.26,0,0,0-.8,1.6,18.7,18.7,0,0,0-.2,2.7V16a9.08,9.08,0,0,0,.6,3.8c.4.8,1.2,1.1,2.4,1.1a2.42,2.42,0,0,0,2.4-1.2,9.2,9.2,0,0,0,.7-4V14.1h-2.9V11.8h5.8V23.1h-2l-.3-2.6a4.08,4.08,0,0,1-4.1,2.9A5,5,0,0,1,102.7,21.4Z"/><path class="cls-1" d="M119.8,15.1,114.9.4h3l3.5,11,3.4-11h3l-4.9,14.7v8h-3v-8Z"/></svg>