<svg id="Layer_1" data-name="Layer 1" xmlns="http://www.w3.org/2000/svg" viewBox="0 0 22.99 23"><defs><style>.cls-1{fill:#231f20}</style></defs><path class="cls-1" d="M17 1.5A4.51 4.51 0 0121.5 6v11a4.51 4.51 0 01-4.5 4.5H6A4.51 4.51 0 011.51 17V6A4.51 4.51 0 016 1.5h11M17 0H6a6 6 0 00-6 6v11a6 6 0 006 6h11a6 6 0 006-6V6a6 6 0 00-6-6z" transform="translate(-.01)"/><path class="cls-1" d="M11.51 7.08a4.43 4.43 0 11-4.43 4.43 4.42 4.42 0 014.43-4.43m0-1.5a5.93 5.93 0 105.92 5.93 5.92 5.92 0 00-5.92-5.93z" transform="translate(-.01)"/><circle class="cls-1" cx="17.63" cy="5.38" r="1.34"/></svg>