<svg data-name="Layer 1" xmlns="http://www.w3.org/2000/svg" viewBox="0 0 30 15.76"><path d="M23.94 15.76a4.05 4.05 0 01-2.08-.63 10.17 10.17 0 01-1.78-1.53c-.44-.44-1.17-1.18-1.45-1.18s-.48.92-.47 1.57a1.75 1.75 0 01-.47 1.21 2.26 2.26 0 01-1.22.5h-1.92a11.32 11.32 0 01-7.43-3C3.44 9.33.28 2.89.15 2.61A1.34 1.34 0 01.3 1.13 2.07 2.07 0 011.66.65h4.2a2.45 2.45 0 01.95.35 1.82 1.82 0 01.63.73A22.09 22.09 0 008.92 4.4c1.31 2 1.89 2.46 2.1 2.56a8.12 8.12 0 00.19-2.87A2.7 2.7 0 0011 2.81a1.33 1.33 0 00-.77-.29l-.73-.69c-.14-.66.59-1.23 1.1-1.45A8.69 8.69 0 0113.75 0h.71a9.11 9.11 0 012.15.2c1.7.36 1.64 1.73 1.57 3.31 0 .46-.05 1-.05 1.62v.48a4.11 4.11 0 00.09 1.3 9.09 9.09 0 002.07-2.48 20.39 20.39 0 001.52-2.8 1.58 1.58 0 011.6-.95h4.28a2 2 0 01.38 0c1 0 1.59.29 1.83.85s.17 1.66-2.36 4.61l-1 1.13a7.34 7.34 0 00-1.24 1.59A7.06 7.06 0 0026.58 10a14.25 14.25 0 013 3.07 1.6 1.6 0 01.26 1.68 2.3 2.3 0 01-1.88 1l-3.79.05zm-5.31-4.84c.9 0 1.68.79 2.51 1.62a8.63 8.63 0 001.5 1.3 2.51 2.51 0 001.4.42h.1l3.8-.05a1.43 1.43 0 00.54-.14l-.1-.16a13.22 13.22 0 00-2.68-2.72c-1.19-1-1.8-1.47-1.87-2.24s.49-1.44 1.61-2.71l1-1.11a10.73 10.73 0 002.05-2.95 5.66 5.66 0 00-.67 0h-4.37a.55.55 0 00-.24 0 20.5 20.5 0 01-1.65 3.05c-1.89 2.82-2.78 3.2-3.41 3.2a1.19 1.19 0 01-.56-.14c-1-.57-1-1.84-.94-2.76V5.1c0-.65 0-1.21.05-1.69.08-1.68 0-1.69-.38-1.78a8.56 8.56 0 00-1.86-.16h-.69a13 13 0 00-1.9.1 1.18 1.18 0 01.25.25A3.81 3.81 0 0112.71 4c.13 1.65.06 3.8-1 4.32a1.38 1.38 0 01-.6.13c-.93 0-1.85-.88-3.42-3.26a23.42 23.42 0 01-1.61-2.85L6 2.24a1.21 1.21 0 00-.32-.11H1.61C2.2 3.35 5 8.75 8.13 11.58a10 10 0 006.42 2.63h1.85a1 1 0 00.27-.1v-.09c0-.27 0-2.6 1.58-3a1.67 1.67 0 01.38-.1z"/></svg>