<svg id="Layer_1" data-name="Layer 1" xmlns="http://www.w3.org/2000/svg" viewBox="0 0 30 15.76"><title>vk</title><path d="M23.94,15.76a4.05,4.05,0,0,1-2.08-.63,10.17,10.17,0,0,1-1.78-1.53c-.44-.44-1.17-1.18-1.45-1.18s-.48.92-.47,1.57a1.75,1.75,0,0,1-.47,1.21,2.26,2.26,0,0,1-1.22.5H14.55a11.32,11.32,0,0,1-7.43-3C3.44,9.33.28,2.89.15,2.61A1.34,1.34,0,0,1,.3,1.13,2.07,2.07,0,0,1,1.66.65l4.08,0h.12A2.45,2.45,0,0,1,6.81,1a1.82,1.82,0,0,1,.63.73A22.09,22.09,0,0,0,8.92,4.4c1.31,2,1.89,2.46,2.1,2.56a8.12,8.12,0,0,0,.19-2.87A2.7,2.7,0,0,0,11,2.81a1.33,1.33,0,0,0-.77-.29l-.73-.69C9.36,1.17,10.09.6,10.6.38A8.69,8.69,0,0,1,13.75,0h.71A9.11,9.11,0,0,1,16.61.2c1.7.36,1.64,1.73,1.57,3.31,0,.46-.05,1-.05,1.62,0,.15,0,.31,0,.48a4.11,4.11,0,0,0,.09,1.3,9.09,9.09,0,0,0,2.07-2.48,20.39,20.39,0,0,0,1.52-2.8h0A1.58,1.58,0,0,1,23.41.68l4.28,0a2,2,0,0,1,.38,0c1,0,1.59.29,1.83.85s.17,1.66-2.36,4.61l-1,1.13a7.34,7.34,0,0,0-1.24,1.59A7.06,7.06,0,0,0,26.58,10a14.25,14.25,0,0,1,3,3.07,1.6,1.6,0,0,1,.26,1.68,2.3,2.3,0,0,1-1.88,1l-3.79.05Zm-5.31-4.84c.9,0,1.68.79,2.51,1.62a8.63,8.63,0,0,0,1.5,1.3,2.51,2.51,0,0,0,1.4.42h.1l3.8-.05a1.43,1.43,0,0,0,.54-.14l-.1-.16a13.22,13.22,0,0,0-2.68-2.72c-1.19-1-1.8-1.47-1.87-2.24s.49-1.44,1.61-2.71l1-1.11a10.73,10.73,0,0,0,2.05-2.95,5.66,5.66,0,0,0-.67,0l-4.37,0a.55.55,0,0,0-.24,0,20.5,20.5,0,0,1-1.65,3.05c-1.89,2.82-2.78,3.2-3.41,3.2a1.19,1.19,0,0,1-.56-.14c-1-.57-1-1.84-.94-2.76,0-.15,0-.3,0-.43,0-.65,0-1.21.05-1.69.08-1.68,0-1.69-.38-1.78a8.56,8.56,0,0,0-1.86-.16h-.69a13,13,0,0,0-1.9.1,1.18,1.18,0,0,1,.25.25A3.81,3.81,0,0,1,12.71,4c.13,1.65.06,3.8-1,4.32a1.38,1.38,0,0,1-.6.13c-.93,0-1.85-.88-3.42-3.26A23.42,23.42,0,0,1,6.08,2.34L6,2.24a1.21,1.21,0,0,0-.32-.11l-4,0H1.61C2.2,3.35,5,8.75,8.13,11.58a10,10,0,0,0,6.42,2.63H16.4a1,1,0,0,0,.27-.1s0,0,0-.09c0-.27,0-2.6,1.58-3A1.67,1.67,0,0,1,18.63,10.92Z" transform="translate(0 0)"/></svg>