<svg xmlns="http://www.w3.org/2000/svg" xmlns:xlink="http://www.w3.org/1999/xlink"><defs><style>.cls-1{fill:#231f20}</style></defs><symbol id="fb" viewBox="0 0 13.52 27.75"><path d="M9.53 27.75H2.71v-12.9H0V8.47h2.63c-.2-2.88.3-5 1.52-6.44A6.21 6.21 0 018.74 0h4.78v6.15H9.76a6.55 6.55 0 00-.25 2.32h4v6.38h-4zm-5.31-1.5H8v-12.9h4V10H8v-.76c0-2 0-3.79 1-4.46l.19-.13H12V1.5H8.78A4.67 4.67 0 005.29 3c-1 1.23-1.41 3.3-1.1 6.14l.1.83H1.5v3.38h2.72z"/></symbol><symbol id="gift" viewBox="0 0 55.48 59.95"><path d="M52.35 12.17h-7a7.77 7.77 0 00.45-8.11A7.75 7.75 0 0035.34.94c-3.61 2-6.17 6.11-7.6 9-1.43-2.9-4-7.06-7.6-9a7.74 7.74 0 00-10 11.23h-7A3.14 3.14 0 000 15.3v9.38a3.14 3.14 0 003.13 3.14H4v26.1a6 6 0 006 6h35.48a6 6 0 006-6v-26.1h.84a3.14 3.14 0 003.13-3.14V15.3a3.14 3.14 0 00-3.1-3.13zM36.48 3.05A5.33 5.33 0 0142 12.17H29.35C30.48 9.64 33 5 36.48 3.05zM11.75 5.21A5.35 5.35 0 0119 3.05c3.52 1.91 6 6.59 7.13 9.12H13.49a5.33 5.33 0 01-1.74-6.96zm14.79 22.61v13.67H6.36V27.82zM6.36 53.92v-10h20.18v13.63H10a3.63 3.63 0 01-3.64-3.63zm39.12 3.63H28.94V43.89h20.17v10a3.62 3.62 0 01-3.63 3.66zm3.63-16.06H28.94V27.82h20.17zm4-16.81a.74.74 0 01-.73.74H3.13a.74.74 0 01-.73-.74V15.3a.75.75 0 01.73-.73h49.22a.75.75 0 01.73.73z"/></symbol><symbol id="htmlacademy" viewBox="0 0 26.95 34.09"><path d="M13.62 0h-.15L0 1.41v24.66l13.47 8 13.43-8h.05V1.41zM25 12.13l-11.5-6.8v-.1h-.08l-.09-.06v.11L1.92 12.12v-9l11.55-1.19L25 3.15v9zM13.41 6.79l11.51 6.71-4.48 2.64-7.09-4.22v1.41l5.9 3.52-.86.5-5-3v1.42l3.82 2.27-.78.53-3-1.79v1.42l1.85 1.09-1.8 1.08L2 13.62zM1.92 15.13l11.42 6.79v1l-7.93-4.69v1.42l8 4.8v1.07l-8-4.74v1.42l8 4.82 8.15-4.87V17L25 15v10l-11.53 6.85L1.92 25z"/></symbol><symbol id="insta" viewBox="0 0 22.99 23"><path class="cls-1" d="M17 1.5A4.51 4.51 0 0121.5 6v11a4.51 4.51 0 01-4.5 4.5H6A4.51 4.51 0 011.51 17V6A4.51 4.51 0 016 1.5h11M17 0H6a6 6 0 00-6 6v11a6 6 0 006 6h11a6 6 0 006-6V6a6 6 0 00-6-6z" transform="translate(-.01)"/><path class="cls-1" d="M11.51 7.08a4.43 4.43 0 11-4.43 4.43 4.42 4.42 0 014.43-4.43m0-1.5a5.93 5.93 0 105.92 5.93 5.92 5.92 0 00-5.92-5.93z" transform="translate(-.01)"/><circle class="cls-1" cx="17.63" cy="5.38" r="1.34"/></symbol><symbol id="mail" viewBox="0 0 17 13"><path d="M15.6 11.6H1.4V5.8H0V13h17V5.8h-1.4zM0 0v2.3l8.5 7.1L17 2.3V0zm15.6 1.6L8.5 7.5 1.4 1.6v-.2h14.2z"/></symbol><symbol id="phone" viewBox="0 0 19.96 19.93"><path d="M17.91 9.41h-8.5v1.2h8.5l-2.1 2.1.9.9 3.1-3.1a.75.75 0 000-.9l-3.1-3.1-.9.9zM8.11 19.41v-6.2a.65.65 0 00-.6-.6h-4.4a1.22 1.22 0 001.2 1.2h2.5v5h-3.7a1.79 1.79 0 01-1.9-1.7v-14a1.77 1.77 0 011.7-1.8h3.9v5h-2.4a1.22 1.22 0 00-1.2 1.2h4.4a.65.65 0 00.6-.6V.61a.86.86 0 00-.7-.6h-4.4a3 3 0 00-3.1 2.9v13.9a2.89 2.89 0 002.9 3.1h4.6a.5.5 0 00.6-.5z"/></symbol><symbol id="vk" viewBox="0 0 30 15.76"><path d="M23.94 15.76a4.05 4.05 0 01-2.08-.63 10.17 10.17 0 01-1.78-1.53c-.44-.44-1.17-1.18-1.45-1.18s-.48.92-.47 1.57a1.75 1.75 0 01-.47 1.21 2.26 2.26 0 01-1.22.5h-1.92a11.32 11.32 0 01-7.43-3C3.44 9.33.28 2.89.15 2.61A1.34 1.34 0 01.3 1.13 2.07 2.07 0 011.66.65h4.2a2.45 2.45 0 01.95.35 1.82 1.82 0 01.63.73A22.09 22.09 0 008.92 4.4c1.31 2 1.89 2.46 2.1 2.56a8.12 8.12 0 00.19-2.87A2.7 2.7 0 0011 2.81a1.33 1.33 0 00-.77-.29l-.73-.69c-.14-.66.59-1.23 1.1-1.45A8.69 8.69 0 0113.75 0h.71a9.11 9.11 0 012.15.2c1.7.36 1.64 1.73 1.57 3.31 0 .46-.05 1-.05 1.62v.48a4.11 4.11 0 00.09 1.3 9.09 9.09 0 002.07-2.48 20.39 20.39 0 001.52-2.8 1.58 1.58 0 011.6-.95h4.28a2 2 0 01.38 0c1 0 1.59.29 1.83.85s.17 1.66-2.36 4.61l-1 1.13a7.34 7.34 0 00-1.24 1.59A7.06 7.06 0 0026.58 10a14.25 14.25 0 013 3.07 1.6 1.6 0 01.26 1.68 2.3 2.3 0 01-1.88 1l-3.79.05zm-5.31-4.84c.9 0 1.68.79 2.51 1.62a8.63 8.63 0 001.5 1.3 2.51 2.51 0 001.4.42h.1l3.8-.05a1.43 1.43 0 00.54-.14l-.1-.16a13.22 13.22 0 00-2.68-2.72c-1.19-1-1.8-1.47-1.87-2.24s.49-1.44 1.61-2.71l1-1.11a10.73 10.73 0 002.05-2.95 5.66 5.66 0 00-.67 0h-4.37a.55.55 0 00-.24 0 20.5 20.5 0 01-1.65 3.05c-1.89 2.82-2.78 3.2-3.41 3.2a1.19 1.19 0 01-.56-.14c-1-.57-1-1.84-.94-2.76V5.1c0-.65 0-1.21.05-1.69.08-1.68 0-1.69-.38-1.78a8.56 8.56 0 00-1.86-.16h-.69a13 13 0 00-1.9.1 1.18 1.18 0 01.25.25A3.81 3.81 0 0112.71 4c.13 1.65.06 3.8-1 4.32a1.38 1.38 0 01-.6.13c-.93 0-1.85-.88-3.42-3.26a23.42 23.42 0 01-1.61-2.85L6 2.24a1.21 1.21 0 00-.32-.11H1.61C2.2 3.35 5 8.75 8.13 11.58a10 10 0 006.42 2.63h1.85a1 1 0 00.27-.1v-.09c0-.27 0-2.6 1.58-3a1.67 1.67 0 01.38-.1z"/></symbol></svg>